<mxfile host="app.diagrams.net" modified="2024-06-06T09:00:03.559Z" agent="Mozilla/5.0 (Windows NT 10.0; Win64; x64) AppleWebKit/537.36 (KHTML, like Gecko) Chrome/126.0.0.0 Safari/537.36" etag="J9Oj2rhAzK5OjmwCPuPS" version="24.4.10" type="github">
  <diagram name="第 1 页" id="lxqsEcNkaPuK-fZSOA44">
    <mxGraphModel dx="548" dy="284" grid="1" gridSize="10" guides="1" tooltips="1" connect="1" arrows="1" fold="1" page="1" pageScale="1" pageWidth="1169" pageHeight="827" math="0" shadow="0">
      <root>
        <mxCell id="0" />
        <mxCell id="1" parent="0" />
        <mxCell id="_FQAXC7W-VBshnB_TiA--20" value="" style="edgeStyle=orthogonalEdgeStyle;rounded=0;orthogonalLoop=1;jettySize=auto;html=1;" parent="1" edge="1">
          <mxGeometry relative="1" as="geometry">
            <mxPoint x="190.00000000000023" y="240" as="sourcePoint" />
            <mxPoint x="190.00000000000023" y="240" as="targetPoint" />
          </mxGeometry>
        </mxCell>
        <mxCell id="xCKm-LhLHlY7K5r4dHXQ-1" value="" style="endArrow=none;html=1;rounded=0;" edge="1" parent="1">
          <mxGeometry width="50" height="50" relative="1" as="geometry">
            <mxPoint x="360" y="680" as="sourcePoint" />
            <mxPoint x="361" y="60" as="targetPoint" />
          </mxGeometry>
        </mxCell>
        <mxCell id="xCKm-LhLHlY7K5r4dHXQ-2" value="" style="endArrow=none;html=1;rounded=0;" edge="1" parent="1">
          <mxGeometry width="50" height="50" relative="1" as="geometry">
            <mxPoint x="560" y="680" as="sourcePoint" />
            <mxPoint x="561" y="60" as="targetPoint" />
          </mxGeometry>
        </mxCell>
        <mxCell id="xCKm-LhLHlY7K5r4dHXQ-3" value="SYN_SENT&lt;br&gt;( connect() )" style="text;html=1;align=center;verticalAlign=middle;whiteSpace=wrap;rounded=0;" vertex="1" parent="1">
          <mxGeometry x="270" y="75" width="80" height="30" as="geometry" />
        </mxCell>
        <mxCell id="xCKm-LhLHlY7K5r4dHXQ-4" value="" style="endArrow=classic;html=1;rounded=0;" edge="1" parent="1">
          <mxGeometry width="50" height="50" relative="1" as="geometry">
            <mxPoint x="360" y="280" as="sourcePoint" />
            <mxPoint x="560" y="320" as="targetPoint" />
          </mxGeometry>
        </mxCell>
        <mxCell id="xCKm-LhLHlY7K5r4dHXQ-5" value="&lt;font style=&quot;font-size: 9px;&quot;&gt;seq = x + 1, ACK = y + 1&amp;nbsp;&lt;/font&gt;" style="edgeLabel;html=1;align=center;verticalAlign=middle;resizable=0;points=[];rotation=12;" vertex="1" connectable="0" parent="xCKm-LhLHlY7K5r4dHXQ-4">
          <mxGeometry x="0.0867" y="-2" relative="1" as="geometry">
            <mxPoint x="-10" y="-15" as="offset" />
          </mxGeometry>
        </mxCell>
        <mxCell id="xCKm-LhLHlY7K5r4dHXQ-6" value="" style="endArrow=classic;html=1;rounded=0;exitX=0;exitY=0;exitDx=0;exitDy=0;" edge="1" parent="1">
          <mxGeometry width="50" height="50" relative="1" as="geometry">
            <mxPoint x="560.9523809523807" y="130" as="sourcePoint" />
            <mxPoint x="360" y="170" as="targetPoint" />
          </mxGeometry>
        </mxCell>
        <mxCell id="xCKm-LhLHlY7K5r4dHXQ-7" value="&lt;font style=&quot;font-size: 9px;&quot;&gt;SYN seq = y, ACK = x + 1&lt;/font&gt;" style="edgeLabel;html=1;align=center;verticalAlign=middle;resizable=0;points=[];rotation=348;" vertex="1" connectable="0" parent="xCKm-LhLHlY7K5r4dHXQ-6">
          <mxGeometry x="-0.1131" y="1" relative="1" as="geometry">
            <mxPoint x="-17" y="-8" as="offset" />
          </mxGeometry>
        </mxCell>
        <mxCell id="xCKm-LhLHlY7K5r4dHXQ-8" value="LISTEN&lt;br&gt;( listen() )" style="text;html=1;align=center;verticalAlign=middle;whiteSpace=wrap;rounded=0;" vertex="1" parent="1">
          <mxGeometry x="580" y="75" width="70" height="30" as="geometry" />
        </mxCell>
        <mxCell id="xCKm-LhLHlY7K5r4dHXQ-9" value="SYN_RCVD" style="text;html=1;align=center;verticalAlign=middle;whiteSpace=wrap;rounded=0;" vertex="1" parent="1">
          <mxGeometry x="580" y="120" width="70" height="30" as="geometry" />
        </mxCell>
        <mxCell id="xCKm-LhLHlY7K5r4dHXQ-10" value="ESTABLISHED" style="text;html=1;align=center;verticalAlign=middle;whiteSpace=wrap;rounded=0;" vertex="1" parent="1">
          <mxGeometry x="270" y="160" width="80" height="30" as="geometry" />
        </mxCell>
        <mxCell id="xCKm-LhLHlY7K5r4dHXQ-11" value="ESTABLISHED" style="text;html=1;align=center;verticalAlign=middle;whiteSpace=wrap;rounded=0;" vertex="1" parent="1">
          <mxGeometry x="580" y="212" width="80" height="30" as="geometry" />
        </mxCell>
        <mxCell id="xCKm-LhLHlY7K5r4dHXQ-12" value="" style="endArrow=classic;html=1;rounded=0;" edge="1" parent="1">
          <mxGeometry width="50" height="50" relative="1" as="geometry">
            <mxPoint x="360" y="190" as="sourcePoint" />
            <mxPoint x="560" y="230" as="targetPoint" />
          </mxGeometry>
        </mxCell>
        <mxCell id="xCKm-LhLHlY7K5r4dHXQ-13" value="&lt;font style=&quot;font-size: 9px;&quot;&gt;ACK = y + 1&lt;/font&gt;" style="edgeLabel;html=1;align=center;verticalAlign=middle;resizable=0;points=[];rotation=12;" vertex="1" connectable="0" parent="xCKm-LhLHlY7K5r4dHXQ-12">
          <mxGeometry x="0.0867" y="-2" relative="1" as="geometry">
            <mxPoint x="-10" y="-15" as="offset" />
          </mxGeometry>
        </mxCell>
        <mxCell id="xCKm-LhLHlY7K5r4dHXQ-15" value="建立连接的三次握手" style="text;html=1;align=center;verticalAlign=middle;whiteSpace=wrap;rounded=0;flipV=0;flipH=1;direction=south;" vertex="1" parent="1">
          <mxGeometry x="190" y="75" width="5" height="120" as="geometry" />
        </mxCell>
        <mxCell id="xCKm-LhLHlY7K5r4dHXQ-20" value="" style="endArrow=none;html=1;rounded=0;dashed=1;dashPattern=1 1;" edge="1" parent="1">
          <mxGeometry width="50" height="50" relative="1" as="geometry">
            <mxPoint x="189.99999999999977" y="239" as="sourcePoint" />
            <mxPoint x="720" y="239" as="targetPoint" />
          </mxGeometry>
        </mxCell>
        <mxCell id="xCKm-LhLHlY7K5r4dHXQ-21" value="数据传输" style="text;html=1;align=center;verticalAlign=middle;whiteSpace=wrap;rounded=0;flipV=0;flipH=1;direction=south;" vertex="1" parent="1">
          <mxGeometry x="190" y="270" width="10" height="120" as="geometry" />
        </mxCell>
        <mxCell id="xCKm-LhLHlY7K5r4dHXQ-22" value="" style="endArrow=none;html=1;rounded=0;dashed=1;dashPattern=1 1;" edge="1" parent="1">
          <mxGeometry width="50" height="50" relative="1" as="geometry">
            <mxPoint x="179.99999999999977" y="400" as="sourcePoint" />
            <mxPoint x="710" y="400" as="targetPoint" />
          </mxGeometry>
        </mxCell>
        <mxCell id="xCKm-LhLHlY7K5r4dHXQ-24" value="" style="endArrow=classic;html=1;rounded=0;" edge="1" parent="1">
          <mxGeometry width="50" height="50" relative="1" as="geometry">
            <mxPoint x="360" y="80" as="sourcePoint" />
            <mxPoint x="560" y="120" as="targetPoint" />
          </mxGeometry>
        </mxCell>
        <mxCell id="xCKm-LhLHlY7K5r4dHXQ-25" value="&lt;font style=&quot;font-size: 9px;&quot;&gt;SYN seq = x&lt;/font&gt;" style="edgeLabel;html=1;align=center;verticalAlign=middle;resizable=0;points=[];rotation=12;" vertex="1" connectable="0" parent="xCKm-LhLHlY7K5r4dHXQ-24">
          <mxGeometry x="0.0867" y="-2" relative="1" as="geometry">
            <mxPoint x="-10" y="-15" as="offset" />
          </mxGeometry>
        </mxCell>
        <mxCell id="xCKm-LhLHlY7K5r4dHXQ-26" value="" style="endArrow=classic;html=1;rounded=0;exitX=0;exitY=0;exitDx=0;exitDy=0;" edge="1" parent="1">
          <mxGeometry width="50" height="50" relative="1" as="geometry">
            <mxPoint x="560.9523809523807" y="340" as="sourcePoint" />
            <mxPoint x="360" y="380" as="targetPoint" />
          </mxGeometry>
        </mxCell>
        <mxCell id="xCKm-LhLHlY7K5r4dHXQ-27" value="&lt;font style=&quot;font-size: 9px;&quot;&gt;ACK = x + 2&lt;/font&gt;" style="edgeLabel;html=1;align=center;verticalAlign=middle;resizable=0;points=[];rotation=348;" vertex="1" connectable="0" parent="xCKm-LhLHlY7K5r4dHXQ-26">
          <mxGeometry x="-0.1131" y="1" relative="1" as="geometry">
            <mxPoint x="-15" y="-9" as="offset" />
          </mxGeometry>
        </mxCell>
        <mxCell id="xCKm-LhLHlY7K5r4dHXQ-28" value="（ write() ）" style="text;html=1;align=center;verticalAlign=middle;whiteSpace=wrap;rounded=0;" vertex="1" parent="1">
          <mxGeometry x="270" y="260" width="80" height="30" as="geometry" />
        </mxCell>
        <mxCell id="xCKm-LhLHlY7K5r4dHXQ-29" value="（ read() )" style="text;html=1;align=center;verticalAlign=middle;whiteSpace=wrap;rounded=0;" vertex="1" parent="1">
          <mxGeometry x="570" y="310" width="80" height="30" as="geometry" />
        </mxCell>
        <mxCell id="xCKm-LhLHlY7K5r4dHXQ-30" value="断开连接的四次挥手" style="text;html=1;align=center;verticalAlign=middle;whiteSpace=wrap;rounded=0;flipV=0;flipH=1;direction=south;" vertex="1" parent="1">
          <mxGeometry x="190" y="440" width="5" height="120" as="geometry" />
        </mxCell>
        <mxCell id="xCKm-LhLHlY7K5r4dHXQ-31" value="FIN_WAIT_1&lt;br&gt;( close() )" style="text;html=1;align=center;verticalAlign=middle;whiteSpace=wrap;rounded=0;" vertex="1" parent="1">
          <mxGeometry x="270" y="430" width="80" height="30" as="geometry" />
        </mxCell>
        <mxCell id="xCKm-LhLHlY7K5r4dHXQ-32" value="" style="endArrow=classic;html=1;rounded=0;" edge="1" parent="1">
          <mxGeometry width="50" height="50" relative="1" as="geometry">
            <mxPoint x="360" y="440" as="sourcePoint" />
            <mxPoint x="560" y="480" as="targetPoint" />
          </mxGeometry>
        </mxCell>
        <mxCell id="xCKm-LhLHlY7K5r4dHXQ-33" value="&lt;font style=&quot;font-size: 9px;&quot;&gt;FIN seq= x + 2, ACK = y + 1&lt;/font&gt;" style="edgeLabel;html=1;align=center;verticalAlign=middle;resizable=0;points=[];rotation=12;" vertex="1" connectable="0" parent="xCKm-LhLHlY7K5r4dHXQ-32">
          <mxGeometry x="0.0867" y="-2" relative="1" as="geometry">
            <mxPoint x="-10" y="-15" as="offset" />
          </mxGeometry>
        </mxCell>
        <mxCell id="xCKm-LhLHlY7K5r4dHXQ-34" value="" style="endArrow=classic;html=1;rounded=0;exitX=0;exitY=0;exitDx=0;exitDy=0;" edge="1" parent="1">
          <mxGeometry width="50" height="50" relative="1" as="geometry">
            <mxPoint x="560.9523809523807" y="511" as="sourcePoint" />
            <mxPoint x="360" y="551" as="targetPoint" />
          </mxGeometry>
        </mxCell>
        <mxCell id="xCKm-LhLHlY7K5r4dHXQ-35" value="&lt;font style=&quot;font-size: 9px;&quot;&gt;ACK = x + 3&lt;/font&gt;" style="edgeLabel;html=1;align=center;verticalAlign=middle;resizable=0;points=[];rotation=348;" vertex="1" connectable="0" parent="xCKm-LhLHlY7K5r4dHXQ-34">
          <mxGeometry x="-0.1131" y="1" relative="1" as="geometry">
            <mxPoint x="-13" y="-10" as="offset" />
          </mxGeometry>
        </mxCell>
        <mxCell id="xCKm-LhLHlY7K5r4dHXQ-36" value="CLOSE_WAIT" style="text;html=1;align=center;verticalAlign=middle;whiteSpace=wrap;rounded=0;" vertex="1" parent="1">
          <mxGeometry x="580" y="470" width="80" height="30" as="geometry" />
        </mxCell>
        <mxCell id="xCKm-LhLHlY7K5r4dHXQ-37" value="LAST_ACK&lt;div&gt;( close() )&lt;/div&gt;" style="text;html=1;align=center;verticalAlign=middle;whiteSpace=wrap;rounded=0;" vertex="1" parent="1">
          <mxGeometry x="580" y="520" width="80" height="30" as="geometry" />
        </mxCell>
        <mxCell id="xCKm-LhLHlY7K5r4dHXQ-38" value="FIN_WAIT_2" style="text;html=1;align=center;verticalAlign=middle;whiteSpace=wrap;rounded=0;" vertex="1" parent="1">
          <mxGeometry x="270" y="530" width="80" height="30" as="geometry" />
        </mxCell>
        <mxCell id="xCKm-LhLHlY7K5r4dHXQ-39" value="" style="endArrow=classic;html=1;rounded=0;exitX=0;exitY=0;exitDx=0;exitDy=0;" edge="1" parent="1">
          <mxGeometry width="50" height="50" relative="1" as="geometry">
            <mxPoint x="560.9523809523807" y="550" as="sourcePoint" />
            <mxPoint x="360" y="590" as="targetPoint" />
          </mxGeometry>
        </mxCell>
        <mxCell id="xCKm-LhLHlY7K5r4dHXQ-40" value="&lt;font style=&quot;font-size: 9px;&quot;&gt;FIN seq= y + 1, PSH, ACK= x + 3&lt;/font&gt;" style="edgeLabel;html=1;align=center;verticalAlign=middle;resizable=0;points=[];rotation=348;" vertex="1" connectable="0" parent="xCKm-LhLHlY7K5r4dHXQ-39">
          <mxGeometry x="-0.1131" y="1" relative="1" as="geometry">
            <mxPoint x="-23" y="-7" as="offset" />
          </mxGeometry>
        </mxCell>
        <mxCell id="xCKm-LhLHlY7K5r4dHXQ-41" value="TIME_WAIT&lt;br&gt;等待 2MSL" style="text;html=1;align=center;verticalAlign=middle;whiteSpace=wrap;rounded=0;" vertex="1" parent="1">
          <mxGeometry x="270" y="580" width="80" height="30" as="geometry" />
        </mxCell>
        <mxCell id="xCKm-LhLHlY7K5r4dHXQ-43" value="" style="endArrow=classic;html=1;rounded=0;" edge="1" parent="1">
          <mxGeometry width="50" height="50" relative="1" as="geometry">
            <mxPoint x="360" y="610" as="sourcePoint" />
            <mxPoint x="560" y="650" as="targetPoint" />
          </mxGeometry>
        </mxCell>
        <mxCell id="xCKm-LhLHlY7K5r4dHXQ-44" value="&lt;font style=&quot;font-size: 9px;&quot;&gt;ACK = y + 3&lt;/font&gt;" style="edgeLabel;html=1;align=center;verticalAlign=middle;resizable=0;points=[];rotation=12;" vertex="1" connectable="0" parent="xCKm-LhLHlY7K5r4dHXQ-43">
          <mxGeometry x="0.0867" y="-2" relative="1" as="geometry">
            <mxPoint x="-10" y="-15" as="offset" />
          </mxGeometry>
        </mxCell>
        <mxCell id="xCKm-LhLHlY7K5r4dHXQ-45" value="CLOSED" style="text;html=1;align=center;verticalAlign=middle;whiteSpace=wrap;rounded=0;" vertex="1" parent="1">
          <mxGeometry x="580" y="640" width="80" height="30" as="geometry" />
        </mxCell>
        <mxCell id="xCKm-LhLHlY7K5r4dHXQ-46" value="CLOSED" style="text;html=1;align=center;verticalAlign=middle;whiteSpace=wrap;rounded=0;" vertex="1" parent="1">
          <mxGeometry x="270" y="640" width="80" height="30" as="geometry" />
        </mxCell>
      </root>
    </mxGraphModel>
  </diagram>
</mxfile>
